{
.appVersion = "1075";
copyright = "Copyright 2016 The Rounded M+ Project Authors.";
customParameters = (
{
name = vendorID;
value = "M+  ";
},
{
name = panose;
value = (
2,
11,
6,
2,
2,
2,
3,
2,
2,
7
);
},
{
name = unicodeRanges;
value = (
0,
1,
2,
3,
4,
5,
6,
7,
9,
11,
24,
29,
30,
31,
32,
33,
35,
36,
37,
38,
39,
40,
42,
43,
44,
45,
46,
47,
48,
49,
50,
54,
57,
59,
61,
62,
65,
68,
89
);
},
{
name = codePageRanges;
value = (
1252,
1250,
1251,
1253,
1254,
1255,
1257,
1258,
932,
950,
869,
866,
865,
863,
862,
861,
860,
857,
855,
852,
775,
737,
850,
437
);
},
{
name = glyphOrder;
value = (
.notdef,
space
);
}
);
date = "2015-05-28 17:07:45 +0000";
familyName = "Yaku Han RP";
fontMaster = (
{
ascender = 860;
capHeight = 700;
customParameters = (
{
name = typoAscender;
value = 860;
},
{
name = typoDescender;
value = -140;
},
{
name = typoLineGap;
value = 90;
},
{
name = winAscent;
value = 1075;
},
{
name = winDescent;
value = 320;
},
{
name = hheaAscender;
value = 1075;
},
{
name = hheaDescender;
value = -320;
},
{
name = underlinePosition;
value = -150;
}
);
descender = -140;
id = "7377DBF7-6916-486D-9290-81CE20E97294";
weightValue = 500;
widthValue = 5;
xHeight = 500;
}
);
glyphs = (
{
glyphname = ellipsis;
lastChange = "2017-12-21 08:43:22 +0000";
layers = (
{
layerId = "7377DBF7-6916-486D-9290-81CE20E97294";
paths = (
{
closed = 1;
nodes = (
"872 285 OFFCURVE",
"898 311 OFFCURVE",
"898 342 CURVE SMOOTH",
"898 378 LINE SMOOTH",
"898 409 OFFCURVE",
"872 435 OFFCURVE",
"841 435 CURVE SMOOTH",
"825 435 LINE SMOOTH",
"794 435 OFFCURVE",
"768 409 OFFCURVE",
"768 378 CURVE SMOOTH",
"768 342 LINE SMOOTH",
"768 311 OFFCURVE",
"794 285 OFFCURVE",
"825 285 CURVE SMOOTH",
"841 285 LINE SMOOTH"
);
},
{
closed = 1;
nodes = (
"539 285 OFFCURVE",
"565 311 OFFCURVE",
"565 342 CURVE SMOOTH",
"565 378 LINE SMOOTH",
"565 409 OFFCURVE",
"539 435 OFFCURVE",
"508 435 CURVE SMOOTH",
"492 435 LINE SMOOTH",
"461 435 OFFCURVE",
"435 409 OFFCURVE",
"435 378 CURVE SMOOTH",
"435 342 LINE SMOOTH",
"435 311 OFFCURVE",
"461 285 OFFCURVE",
"492 285 CURVE SMOOTH",
"508 285 LINE SMOOTH"
);
},
{
closed = 1;
nodes = (
"206 285 OFFCURVE",
"232 311 OFFCURVE",
"232 342 CURVE SMOOTH",
"232 378 LINE SMOOTH",
"232 409 OFFCURVE",
"206 435 OFFCURVE",
"175 435 CURVE SMOOTH",
"159 435 LINE SMOOTH",
"128 435 OFFCURVE",
"102 409 OFFCURVE",
"102 378 CURVE SMOOTH",
"102 342 LINE SMOOTH",
"102 311 OFFCURVE",
"128 285 OFFCURVE",
"159 285 CURVE SMOOTH",
"175 285 LINE SMOOTH"
);
}
);
vertWidth = 1000;
width = 1000;
}
);
note = ellipsis;
unicode = 2026;
},
{
glyphname = colon.full;
lastChange = "2017-12-21 08:44:52 +0000";
layers = (
{
layerId = "7377DBF7-6916-486D-9290-81CE20E97294";
paths = (
{
closed = 1;
nodes = (
"254 70 OFFCURVE",
"280 96 OFFCURVE",
"280 127 CURVE SMOOTH",
"280 163 LINE SMOOTH",
"280 194 OFFCURVE",
"254 220 OFFCURVE",
"223 220 CURVE SMOOTH",
"207 220 LINE SMOOTH",
"176 220 OFFCURVE",
"150 194 OFFCURVE",
"150 163 CURVE SMOOTH",
"150 127 LINE SMOOTH",
"150 96 OFFCURVE",
"176 70 OFFCURVE",
"207 70 CURVE SMOOTH",
"223 70 LINE SMOOTH"
);
},
{
closed = 1;
nodes = (
"254 500 OFFCURVE",
"280 526 OFFCURVE",
"280 557 CURVE SMOOTH",
"280 593 LINE SMOOTH",
"280 624 OFFCURVE",
"254 650 OFFCURVE",
"223 650 CURVE SMOOTH",
"207 650 LINE SMOOTH",
"176 650 OFFCURVE",
"150 624 OFFCURVE",
"150 593 CURVE SMOOTH",
"150 557 LINE SMOOTH",
"150 526 OFFCURVE",
"176 500 OFFCURVE",
"207 500 CURVE SMOOTH",
"223 500 LINE SMOOTH"
);
}
);
vertWidth = 1000;
width = 430;
}
);
note = uniFF1A;
unicode = FF1A;
},
{
glyphname = exclam.full;
lastChange = "2017-12-21 08:44:52 +0000";
layers = (
{
layerId = "7377DBF7-6916-486D-9290-81CE20E97294";
paths = (
{
closed = 1;
nodes = (
"258 234 OFFCURVE",
"263 246 OFFCURVE",
"264 260 CURVE",
"276 673 LINE SMOOTH",
"277 704 OFFCURVE",
"252 730 OFFCURVE",
"221 730 CURVE SMOOTH",
"205 730 LINE SMOOTH",
"174 730 OFFCURVE",
"149 704 OFFCURVE",
"150 673 CURVE SMOOTH",
"162 260 LINE SMOOTH",
"163 232 OFFCURVE",
"185 210 OFFCURVE",
"213 210 CURVE SMOOTH",
"227 210 OFFCURVE",
"239 215 OFFCURVE",
"249 225 CURVE SMOOTH"
);
},
{
closed = 1;
nodes = (
"179 130 OFFCURVE",
"153 104 OFFCURVE",
"153 73 CURVE SMOOTH",
"153 57 LINE SMOOTH",
"153 26 OFFCURVE",
"179 0 OFFCURVE",
"210 0 CURVE SMOOTH",
"216 0 LINE SMOOTH",
"247 0 OFFCURVE",
"273 26 OFFCURVE",
"273 57 CURVE SMOOTH",
"273 73 LINE SMOOTH",
"273 104 OFFCURVE",
"247 130 OFFCURVE",
"216 130 CURVE SMOOTH",
"210 130 LINE SMOOTH"
);
}
);
vertWidth = 1000;
width = 426;
}
);
note = uniFF01;
unicode = FF01;
},
{
glyphname = question.full;
lastChange = "2017-12-21 08:44:52 +0000";
layers = (
{
layerId = "7377DBF7-6916-486D-9290-81CE20E97294";
paths = (
{
closed = 1;
nodes = (
"271 640 OFFCURVE",
"332 648 OFFCURVE",
"391 648 CURVE SMOOTH",
"501 648 OFFCURVE",
"556 619 OFFCURVE",
"556 560 CURVE SMOOTH",
"556 531 OFFCURVE",
"547 508 OFFCURVE",
"523 485 CURVE SMOOTH",
"498 462 OFFCURVE",
"489 456 OFFCURVE",
"452 432 CURVE SMOOTH",
"427 415 OFFCURVE",
"407 402 OFFCURVE",
"393 391 CURVE",
"364 370 OFFCURVE",
"324 321 OFFCURVE",
"312 269 CURVE SMOOTH",
"305 241 OFFCURVE",
"330 215 OFFCURVE",
"361 215 CURVE SMOOTH",
"390 215 OFFCURVE",
"414 239 OFFCURVE",
"425 270 CURVE SMOOTH",
"431 288 OFFCURVE",
"441 305 OFFCURVE",
"455 321 CURVE SMOOTH",
"483 353 OFFCURVE",
"500 364 OFFCURVE",
"543 391 CURVE SMOOTH",
"586 419 OFFCURVE",
"602 430 OFFCURVE",
"631 459 CURVE SMOOTH",
"659 488 OFFCURVE",
"671 523 OFFCURVE",
"671 570 CURVE SMOOTH",
"671 673 OFFCURVE",
"575 740 OFFCURVE",
"406 740 CURVE SMOOTH",
"334 740 OFFCURVE",
"261 732 OFFCURVE",
"187 716 CURVE",
"160 709 OFFCURVE",
"146 684 OFFCURVE",
"151 659 CURVE SMOOTH",
"156 634 OFFCURVE",
"182 618 OFFCURVE",
"207 625 CURVE"
);
},
{
closed = 1;
nodes = (
"327 130 OFFCURVE",
"301 104 OFFCURVE",
"301 73 CURVE SMOOTH",
"301 57 LINE SMOOTH",
"301 26 OFFCURVE",
"327 0 OFFCURVE",
"358 0 CURVE SMOOTH",
"364 0 LINE SMOOTH",
"395 0 OFFCURVE",
"421 26 OFFCURVE",
"421 57 CURVE SMOOTH",
"421 73 LINE SMOOTH",
"421 104 OFFCURVE",
"395 130 OFFCURVE",
"364 130 CURVE SMOOTH",
"358 130 LINE SMOOTH"
);
}
);
vertWidth = 1000;
width = 821;
}
);
note = uniFF1F;
unicode = FF1F;
},
{
glyphname = semicolon.full;
lastChange = "2017-12-21 08:44:52 +0000";
layers = (
{
layerId = "7377DBF7-6916-486D-9290-81CE20E97294";
paths = (
{
closed = 1;
nodes = (
"221 -40 OFFCURVE",
"244 -25 OFFCURVE",
"257 6 CURVE SMOOTH",
"326 168 LINE SMOOTH",
"337 193 OFFCURVE",
"318 220 OFFCURVE",
"291 220 CURVE SMOOTH",
"265 220 LINE SMOOTH",
"232 220 OFFCURVE",
"202 197 OFFCURVE",
"193 165 CURVE SMOOTH",
"151 8 LINE SMOOTH",
"144 -16 OFFCURVE",
"163 -40 OFFCURVE",
"188 -40 CURVE SMOOTH"
);
},
{
closed = 1;
nodes = (
"234 650 OFFCURVE",
"208 624 OFFCURVE",
"208 593 CURVE SMOOTH",
"208 557 LINE SMOOTH",
"208 526 OFFCURVE",
"234 500 OFFCURVE",
"265 500 CURVE SMOOTH",
"281 500 LINE SMOOTH",
"312 500 OFFCURVE",
"338 526 OFFCURVE",
"338 557 CURVE SMOOTH",
"338 593 LINE SMOOTH",
"338 624 OFFCURVE",
"312 650 OFFCURVE",
"281 650 CURVE SMOOTH",
"265 650 LINE SMOOTH"
);
}
);
vertWidth = 1000;
width = 488;
}
);
note = uniFF1B;
unicode = FF1B;
},
{
glyphname = anglebracketleft;
lastChange = "2017-12-21 08:45:12 +0000";
layers = (
{
layerId = "7377DBF7-6916-486D-9290-81CE20E97294";
paths = (
{
closed = 1;
nodes = (
"446 -86 OFFCURVE",
"473 -102 OFFCURVE",
"510 -102 CURVE SMOOTH",
"534 -102 OFFCURVE",
"549 -76 OFFCURVE",
"537 -55 CURVE SMOOTH",
"299 353 LINE SMOOTH",
"296 358 OFFCURVE",
"296 362 OFFCURVE",
"299 367 CURVE SMOOTH",
"537 775 LINE SMOOTH",
"549 796 OFFCURVE",
"534 823 OFFCURVE",
"510 823 CURVE SMOOTH",
"473 823 OFFCURVE",
"446 807 OFFCURVE",
"427 775 CURVE SMOOTH",
"214 409 LINE SMOOTH",
"195 376 OFFCURVE",
"195 344 OFFCURVE",
"214 311 CURVE SMOOTH",
"427 -55 LINE SMOOTH"
);
}
);
vertWidth = 1000;
width = 571;
}
);
note = uni3008;
unicode = 3008;
},
{
glyphname = anglebracketright;
lastChange = "2017-12-21 08:45:25 +0000";
layers = (
{
layerId = "7377DBF7-6916-486D-9290-81CE20E97294";
paths = (
{
closed = 1;
nodes = (
"37 822 OFFCURVE",
"22 796 OFFCURVE",
"34 775 CURVE SMOOTH",
"272 367 LINE SMOOTH",
"275 362 OFFCURVE",
"275 358 OFFCURVE",
"272 353 CURVE SMOOTH",
"34 -55 LINE SMOOTH",
"22 -76 OFFCURVE",
"37 -102 OFFCURVE",
"61 -102 CURVE SMOOTH",
"98 -102 OFFCURVE",
"125 -86 OFFCURVE",
"144 -55 CURVE SMOOTH",
"357 311 LINE SMOOTH",
"376 344 OFFCURVE",
"376 376 OFFCURVE",
"357 409 CURVE SMOOTH",
"144 775 LINE SMOOTH",
"125 806 OFFCURVE",
"98 822 OFFCURVE",
"61 822 CURVE SMOOTH"
);
}
);
vertWidth = 1000;
width = 571;
}
);
note = uni3009;
unicode = 3009;
},
{
glyphname = blacklenticularbracketleft;
lastChange = "2017-12-21 08:45:12 +0000";
layers = (
{
layerId = "7377DBF7-6916-486D-9290-81CE20E97294";
paths = (
{
closed = 1;
nodes = (
"469 -102 OFFCURVE",
"480 -77 OFFCURVE",
"465 -61 CURVE SMOOTH",
"362 55 OFFCURVE",
"305 207 OFFCURVE",
"305 360 CURVE SMOOTH",
"305 513 OFFCURVE",
"362 665 OFFCURVE",
"465 781 CURVE SMOOTH",
"480 797 OFFCURVE",
"469 822 OFFCURVE",
"448 822 CURVE SMOOTH",
"257 822 LINE SMOOTH",
"226 822 OFFCURVE",
"200 797 OFFCURVE",
"200 766 CURVE SMOOTH",
"200 -46 LINE SMOOTH",
"200 -77 OFFCURVE",
"226 -102 OFFCURVE",
"257 -102 CURVE SMOOTH",
"448 -102 LINE SMOOTH"
);
}
);
vertWidth = 1000;
width = 502;
}
);
note = uni3010;
unicode = 3010;
},
{
glyphname = blacklenticularbracketright;
lastChange = "2017-12-21 08:45:25 +0000";
layers = (
{
layerId = "7377DBF7-6916-486D-9290-81CE20E97294";
paths = (
{
closed = 1;
nodes = (
"276 -102 OFFCURVE",
"302 -77 OFFCURVE",
"302 -46 CURVE SMOOTH",
"302 766 LINE SMOOTH",
"302 797 OFFCURVE",
"276 822 OFFCURVE",
"245 822 CURVE SMOOTH",
"54 822 LINE SMOOTH",
"33 822 OFFCURVE",
"22 797 OFFCURVE",
"37 781 CURVE SMOOTH",
"140 665 OFFCURVE",
"197 513 OFFCURVE",
"197 360 CURVE SMOOTH",
"197 207 OFFCURVE",
"140 55 OFFCURVE",
"37 -61 CURVE SMOOTH",
"22 -77 OFFCURVE",
"33 -102 OFFCURVE",
"54 -102 CURVE SMOOTH",
"245 -102 LINE SMOOTH"
);
}
);
vertWidth = 1000;
width = 502;
}
);
note = uni3011;
unicode = 3011;
},
{
glyphname = braceleft.full;
lastChange = "2017-12-21 08:45:12 +0000";
layers = (
{
layerId = "7377DBF7-6916-486D-9290-81CE20E97294";
paths = (
{
closed = 1;
nodes = (
"429 391 OFFCURVE",
"455 434 OFFCURVE",
"455 518 CURVE SMOOTH",
"455 638 LINE SMOOTH",
"455 726 OFFCURVE",
"474 742 OFFCURVE",
"550 742 CURVE SMOOTH",
"640 742 LINE SMOOTH",
"661 742 OFFCURVE",
"680 761 OFFCURVE",
"680 782 CURVE SMOOTH",
"680 803 OFFCURVE",
"661 822 OFFCURVE",
"640 822 CURVE SMOOTH",
"500 822 LINE SMOOTH",
"397 822 OFFCURVE",
"355 779 OFFCURVE",
"355 668 CURVE SMOOTH",
"355 522 LINE SMOOTH",
"355 442 OFFCURVE",
"327 402 OFFCURVE",
"270 402 CURVE SMOOTH",
"242 402 LINE SMOOTH",
"219 402 OFFCURVE",
"200 383 OFFCURVE",
"200 360 CURVE SMOOTH",
"200 337 OFFCURVE",
"219 318 OFFCURVE",
"242 318 CURVE SMOOTH",
"270 318 LINE SMOOTH",
"327 318 OFFCURVE",
"355 278 OFFCURVE",
"355 198 CURVE SMOOTH",
"355 52 LINE SMOOTH",
"355 -59 OFFCURVE",
"397 -102 OFFCURVE",
"500 -102 CURVE SMOOTH",
"640 -102 LINE SMOOTH",
"661 -102 OFFCURVE",
"680 -83 OFFCURVE",
"680 -62 CURVE SMOOTH",
"680 -41 OFFCURVE",
"661 -22 OFFCURVE",
"640 -22 CURVE SMOOTH",
"550 -22 LINE SMOOTH",
"474 -22 OFFCURVE",
"455 -6 OFFCURVE",
"455 82 CURVE SMOOTH",
"455 202 LINE SMOOTH",
"455 286 OFFCURVE",
"429 329 OFFCURVE",
"362 358 CURVE",
"361 358 OFFCURVE",
"360 359 OFFCURVE",
"360 360 CURVE SMOOTH",
"360 361 OFFCURVE",
"361 362 OFFCURVE",
"362 362 CURVE"
);
}
);
vertWidth = 1000;
width = 710;
}
);
note = uniFF5B;
unicode = FF5B;
},
{
glyphname = braceright.full;
lastChange = "2017-12-21 08:45:25 +0000";
layers = (
{
layerId = "7377DBF7-6916-486D-9290-81CE20E97294";
paths = (
{
closed = 1;
nodes = (
"281 329 OFFCURVE",
"255 286 OFFCURVE",
"255 202 CURVE SMOOTH",
"255 82 LINE SMOOTH",
"255 -6 OFFCURVE",
"236 -22 OFFCURVE",
"160 -22 CURVE SMOOTH",
"70 -22 LINE SMOOTH",
"49 -22 OFFCURVE",
"30 -41 OFFCURVE",
"30 -62 CURVE SMOOTH",
"30 -83 OFFCURVE",
"49 -102 OFFCURVE",
"70 -102 CURVE SMOOTH",
"210 -102 LINE SMOOTH",
"313 -102 OFFCURVE",
"355 -59 OFFCURVE",
"355 52 CURVE SMOOTH",
"355 198 LINE SMOOTH",
"355 278 OFFCURVE",
"383 318 OFFCURVE",
"440 318 CURVE SMOOTH",
"468 318 LINE SMOOTH",
"491 318 OFFCURVE",
"510 337 OFFCURVE",
"510 360 CURVE SMOOTH",
"510 383 OFFCURVE",
"491 402 OFFCURVE",
"468 402 CURVE SMOOTH",
"440 402 LINE SMOOTH",
"383 402 OFFCURVE",
"355 442 OFFCURVE",
"355 522 CURVE SMOOTH",
"355 668 LINE SMOOTH",
"355 779 OFFCURVE",
"313 822 OFFCURVE",
"210 822 CURVE SMOOTH",
"70 822 LINE SMOOTH",
"49 822 OFFCURVE",
"30 803 OFFCURVE",
"30 782 CURVE SMOOTH",
"30 761 OFFCURVE",
"49 742 OFFCURVE",
"70 742 CURVE SMOOTH",
"160 742 LINE SMOOTH",
"236 742 OFFCURVE",
"255 726 OFFCURVE",
"255 638 CURVE SMOOTH",
"255 518 LINE SMOOTH",
"255 434 OFFCURVE",
"281 391 OFFCURVE",
"348 362 CURVE",
"349 362 OFFCURVE",
"350 361 OFFCURVE",
"350 360 CURVE SMOOTH",
"350 359 OFFCURVE",
"349 358 OFFCURVE",
"348 358 CURVE"
);
}
);
vertWidth = 1000;
width = 710;
}
);
note = uniFF5D;
unicode = FF5D;
},
{
glyphname = cornerbracketleft;
lastChange = "2017-12-21 08:45:12 +0000";
layers = (
{
layerId = "7377DBF7-6916-486D-9290-81CE20E97294";
paths = (
{
closed = 1;
nodes = (
"295 89 OFFCURVE",
"300 101 OFFCURVE",
"300 115 CURVE SMOOTH",
"300 731 LINE SMOOTH",
"300 737 OFFCURVE",
"303 740 OFFCURVE",
"309 740 CURVE SMOOTH",
"557 740 LINE SMOOTH",
"580 740 OFFCURVE",
"600 759 OFFCURVE",
"600 782 CURVE SMOOTH",
"600 805 OFFCURVE",
"580 825 OFFCURVE",
"557 825 CURVE SMOOTH",
"257 825 LINE SMOOTH",
"226 825 OFFCURVE",
"200 799 OFFCURVE",
"200 768 CURVE SMOOTH",
"200 115 LINE SMOOTH",
"200 87 OFFCURVE",
"222 65 OFFCURVE",
"250 65 CURVE SMOOTH",
"264 65 OFFCURVE",
"276 70 OFFCURVE",
"286 80 CURVE SMOOTH"
);
}
);
vertWidth = 1000;
width = 630;
}
);
note = uni300C;
unicode = 300C;
},
{
glyphname = cornerbracketright;
lastChange = "2017-12-21 08:45:25 +0000";
layers = (
{
layerId = "7377DBF7-6916-486D-9290-81CE20E97294";
paths = (
{
closed = 1;
nodes = (
"404 -105 OFFCURVE",
"430 -79 OFFCURVE",
"430 -48 CURVE SMOOTH",
"430 605 LINE SMOOTH",
"430 633 OFFCURVE",
"408 655 OFFCURVE",
"380 655 CURVE SMOOTH",
"352 655 OFFCURVE",
"330 633 OFFCURVE",
"330 605 CURVE SMOOTH",
"330 -11 LINE SMOOTH",
"330 -17 OFFCURVE",
"327 -20 OFFCURVE",
"321 -20 CURVE SMOOTH",
"73 -20 LINE SMOOTH",
"50 -20 OFFCURVE",
"30 -39 OFFCURVE",
"30 -62 CURVE SMOOTH",
"30 -85 OFFCURVE",
"50 -105 OFFCURVE",
"73 -105 CURVE SMOOTH",
"373 -105 LINE SMOOTH"
);
}
);
vertWidth = 1000;
width = 630;
}
);
note = uni300D;
unicode = 300D;
},
{
glyphname = dblanglebracketleft;
lastChange = "2017-12-21 08:45:12 +0000";
layers = (
{
layerId = "7377DBF7-6916-486D-9290-81CE20E97294";
paths = (
{
closed = 1;
nodes = (
"716 797 OFFCURVE",
"700 822 OFFCURVE",
"677 822 CURVE SMOOTH",
"642 822 OFFCURVE",
"616 807 OFFCURVE",
"599 777 CURVE SMOOTH",
"384 409 LINE SMOOTH",
"365 376 OFFCURVE",
"365 344 OFFCURVE",
"384 311 CURVE SMOOTH",
"599 -57 LINE SMOOTH",
"616 -87 OFFCURVE",
"642 -102 OFFCURVE",
"677 -102 CURVE SMOOTH",
"700 -102 OFFCURVE",
"716 -77 OFFCURVE",
"704 -57 CURVE SMOOTH",
"464 353 LINE SMOOTH",
"461 358 OFFCURVE",
"461 362 OFFCURVE",
"464 367 CURVE SMOOTH",
"704 777 LINE SMOOTH"
);
},
{
closed = 1;
nodes = (
"446 -87 OFFCURVE",
"472 -102 OFFCURVE",
"507 -102 CURVE SMOOTH",
"530 -102 OFFCURVE",
"546 -77 OFFCURVE",
"534 -57 CURVE SMOOTH",
"294 353 LINE SMOOTH",
"291 358 OFFCURVE",
"291 362 OFFCURVE",
"294 367 CURVE SMOOTH",
"534 777 LINE SMOOTH",
"546 797 OFFCURVE",
"530 822 OFFCURVE",
"507 822 CURVE SMOOTH",
"472 822 OFFCURVE",
"446 807 OFFCURVE",
"429 777 CURVE SMOOTH",
"214 409 LINE SMOOTH",
"195 376 OFFCURVE",
"195 344 OFFCURVE",
"214 311 CURVE SMOOTH",
"429 -57 LINE SMOOTH"
);
}
);
vertWidth = 1000;
width = 738;
}
);
note = uni300A;
unicode = 300A;
},
{
glyphname = dblanglebracketright;
lastChange = "2017-12-21 08:45:25 +0000";
layers = (
{
layerId = "7377DBF7-6916-486D-9290-81CE20E97294";
paths = (
{
closed = 1;
nodes = (
"122 807 OFFCURVE",
"96 822 OFFCURVE",
"61 822 CURVE SMOOTH",
"38 822 OFFCURVE",
"22 797 OFFCURVE",
"34 777 CURVE SMOOTH",
"274 367 LINE SMOOTH",
"277 362 OFFCURVE",
"277 358 OFFCURVE",
"274 353 CURVE SMOOTH",
"34 -57 LINE SMOOTH",
"22 -77 OFFCURVE",
"38 -102 OFFCURVE",
"61 -102 CURVE SMOOTH",
"96 -102 OFFCURVE",
"122 -87 OFFCURVE",
"139 -57 CURVE SMOOTH",
"354 311 LINE SMOOTH",
"373 344 OFFCURVE",
"373 376 OFFCURVE",
"354 409 CURVE SMOOTH",
"139 777 LINE SMOOTH"
);
},
{
closed = 1;
nodes = (
"208 822 OFFCURVE",
"192 797 OFFCURVE",
"204 777 CURVE SMOOTH",
"444 367 LINE SMOOTH",
"447 362 OFFCURVE",
"447 358 OFFCURVE",
"444 353 CURVE SMOOTH",
"204 -57 LINE SMOOTH",
"192 -77 OFFCURVE",
"208 -102 OFFCURVE",
"231 -102 CURVE SMOOTH",
"266 -102 OFFCURVE",
"292 -87 OFFCURVE",
"309 -57 CURVE SMOOTH",
"524 311 LINE SMOOTH",
"543 344 OFFCURVE",
"543 376 OFFCURVE",
"524 409 CURVE SMOOTH",
"309 777 LINE SMOOTH",
"292 807 OFFCURVE",
"266 822 OFFCURVE",
"231 822 CURVE SMOOTH"
);
}
);
vertWidth = 1000;
width = 738;
}
);
note = uni300B;
unicode = 300B;
},
{
glyphname = tortoiseshellbracketleft;
lastChange = "2017-12-21 08:45:12 +0000";
layers = (
{
layerId = "7377DBF7-6916-486D-9290-81CE20E97294";
paths = (
{
closed = 1;
nodes = (
"550 -102 OFFCURVE",
"570 -87 OFFCURVE",
"570 -66 CURVE SMOOTH",
"570 -41 OFFCURVE",
"554 -18 OFFCURVE",
"530 -11 CURVE SMOOTH",
"308 58 LINE",
"303 60 OFFCURVE",
"300 64 OFFCURVE",
"300 69 CURVE SMOOTH",
"300 651 LINE SMOOTH",
"300 656 OFFCURVE",
"303 660 OFFCURVE",
"308 662 CURVE",
"530 731 LINE SMOOTH",
"554 738 OFFCURVE",
"570 761 OFFCURVE",
"570 786 CURVE SMOOTH",
"570 807 OFFCURVE",
"550 822 OFFCURVE",
"530 815 CURVE SMOOTH",
"254 729 LINE SMOOTH",
"222 718 OFFCURVE",
"200 689 OFFCURVE",
"200 656 CURVE SMOOTH",
"200 64 LINE SMOOTH",
"200 31 OFFCURVE",
"222 2 OFFCURVE",
"254 -9 CURVE SMOOTH",
"530 -95 LINE SMOOTH"
);
}
);
vertWidth = 1000;
width = 600;
}
);
note = uni3014;
unicode = 3014;
},
{
glyphname = tortoiseshellbracketright;
lastChange = "2017-12-21 08:45:25 +0000";
layers = (
{
layerId = "7377DBF7-6916-486D-9290-81CE20E97294";
paths = (
{
closed = 1;
nodes = (
"46 -18 OFFCURVE",
"30 -41 OFFCURVE",
"30 -66 CURVE SMOOTH",
"30 -87 OFFCURVE",
"50 -102 OFFCURVE",
"70 -95 CURVE SMOOTH",
"346 -9 LINE SMOOTH",
"378 2 OFFCURVE",
"400 31 OFFCURVE",
"400 64 CURVE SMOOTH",
"400 656 LINE SMOOTH",
"400 689 OFFCURVE",
"378 718 OFFCURVE",
"346 729 CURVE SMOOTH",
"70 815 LINE SMOOTH",
"50 822 OFFCURVE",
"30 807 OFFCURVE",
"30 786 CURVE SMOOTH",
"30 761 OFFCURVE",
"46 738 OFFCURVE",
"70 731 CURVE SMOOTH",
"292 662 LINE",
"297 660 OFFCURVE",
"300 656 OFFCURVE",
"300 651 CURVE SMOOTH",
"300 69 LINE SMOOTH",
"300 64 OFFCURVE",
"297 60 OFFCURVE",
"292 58 CURVE",
"70 -11 LINE SMOOTH"
);
}
);
vertWidth = 1000;
width = 600;
}
);
note = uni3015;
unicode = 3015;
},
{
glyphname = whitecornerbracketleft;
lastChange = "2017-12-21 08:45:12 +0000";
layers = (
{
layerId = "7377DBF7-6916-486D-9290-81CE20E97294";
paths = (
{
closed = 1;
nodes = (
"260 762 OFFCURVE",
"263 765 OFFCURVE",
"269 765 CURVE SMOOTH",
"571 765 LINE SMOOTH",
"577 765 OFFCURVE",
"580 762 OFFCURVE",
"580 756 CURVE SMOOTH",
"580 698 LINE SMOOTH",
"580 693 OFFCURVE",
"577 690 OFFCURVE",
"571 690 CURVE SMOOTH",
"392 690 LINE SMOOTH",
"361 690 OFFCURVE",
"335 664 OFFCURVE",
"335 633 CURVE SMOOTH",
"335 94 LINE SMOOTH",
"335 88 OFFCURVE",
"332 85 OFFCURVE",
"327 85 CURVE SMOOTH",
"269 85 LINE SMOOTH",
"263 85 OFFCURVE",
"260 88 OFFCURVE",
"260 94 CURVE SMOOTH",
"260 756 LINE SMOOTH"
);
},
{
closed = 1;
nodes = (
"338 25 LINE SMOOTH",
"369 25 OFFCURVE",
"395 51 OFFCURVE",
"395 82 CURVE SMOOTH",
"395 621 LINE SMOOTH",
"395 627 OFFCURVE",
"398 630 OFFCURVE",
"404 630 CURVE SMOOTH",
"583 630 LINE SMOOTH",
"614 630 OFFCURVE",
"640 656 OFFCURVE",
"640 687 CURVE SMOOTH",
"640 768 LINE SMOOTH",
"640 799 OFFCURVE",
"614 825 OFFCURVE",
"583 825 CURVE SMOOTH",
"257 825 LINE SMOOTH",
"226 825 OFFCURVE",
"200 799 OFFCURVE",
"200 768 CURVE SMOOTH",
"200 82 LINE SMOOTH",
"200 51 OFFCURVE",
"226 25 OFFCURVE",
"257 25 CURVE SMOOTH",
"260 25 LINE"
);
}
);
vertWidth = 1000;
width = 670;
}
);
note = uni300E;
unicode = 300E;
},
{
glyphname = whitecornerbracketright;
lastChange = "2017-12-21 08:45:25 +0000";
layers = (
{
layerId = "7377DBF7-6916-486D-9290-81CE20E97294";
paths = (
{
closed = 1;
nodes = (
"90 27 OFFCURVE",
"93 30 OFFCURVE",
"99 30 CURVE SMOOTH",
"278 30 LINE SMOOTH",
"309 30 OFFCURVE",
"335 56 OFFCURVE",
"335 87 CURVE SMOOTH",
"335 626 LINE SMOOTH",
"335 632 OFFCURVE",
"338 635 OFFCURVE",
"344 635 CURVE SMOOTH",
"401 635 LINE SMOOTH",
"407 635 OFFCURVE",
"410 632 OFFCURVE",
"410 626 CURVE SMOOTH",
"410 -36 LINE SMOOTH",
"410 -42 OFFCURVE",
"407 -45 OFFCURVE",
"401 -45 CURVE SMOOTH",
"99 -45 LINE SMOOTH",
"93 -45 OFFCURVE",
"90 -42 OFFCURVE",
"90 -36 CURVE SMOOTH",
"90 21 LINE SMOOTH"
);
},
{
closed = 1;
nodes = (
"444 -105 OFFCURVE",
"470 -79 OFFCURVE",
"470 -48 CURVE SMOOTH",
"470 638 LINE SMOOTH",
"470 669 OFFCURVE",
"444 695 OFFCURVE",
"413 695 CURVE SMOOTH",
"410 695 LINE",
"332 695 LINE SMOOTH",
"301 695 OFFCURVE",
"275 669 OFFCURVE",
"275 638 CURVE SMOOTH",
"275 99 LINE SMOOTH",
"275 93 OFFCURVE",
"272 90 OFFCURVE",
"266 90 CURVE SMOOTH",
"87 90 LINE SMOOTH",
"56 90 OFFCURVE",
"30 64 OFFCURVE",
"30 33 CURVE SMOOTH",
"30 -48 LINE SMOOTH",
"30 -79 OFFCURVE",
"56 -105 OFFCURVE",
"87 -105 CURVE SMOOTH",
"413 -105 LINE SMOOTH"
);
}
);
vertWidth = 1000;
width = 670;
}
);
note = uni300F;
unicode = 300F;
},
{
glyphname = whitelenticularbracketleft;
lastChange = "2017-12-21 08:45:12 +0000";
layers = (
{
layerId = "7377DBF7-6916-486D-9290-81CE20E97294";
paths = (
{
closed = 1;
nodes = (
"260 759 OFFCURVE",
"263 762 OFFCURVE",
"269 762 CURVE SMOOTH",
"440 762 LINE SMOOTH",
"445 762 OFFCURVE",
"447 760 OFFCURVE",
"444 756 CURVE",
"365 636 OFFCURVE",
"325 504 OFFCURVE",
"325 360 CURVE SMOOTH",
"325 216 OFFCURVE",
"365 84 OFFCURVE",
"444 -36 CURVE",
"447 -40 OFFCURVE",
"445 -42 OFFCURVE",
"440 -42 CURVE SMOOTH",
"269 -42 LINE SMOOTH",
"263 -42 OFFCURVE",
"260 -39 OFFCURVE",
"260 -34 CURVE SMOOTH",
"260 754 LINE SMOOTH"
);
},
{
closed = 1;
nodes = (
"531 -102 OFFCURVE",
"541 -77 OFFCURVE",
"528 -60 CURVE SMOOTH",
"436 56 OFFCURVE",
"385 207 OFFCURVE",
"385 360 CURVE SMOOTH",
"385 513 OFFCURVE",
"436 664 OFFCURVE",
"528 780 CURVE SMOOTH",
"541 797 OFFCURVE",
"531 822 OFFCURVE",
"508 822 CURVE SMOOTH",
"257 822 LINE SMOOTH",
"226 822 OFFCURVE",
"200 797 OFFCURVE",
"200 766 CURVE SMOOTH",
"200 -46 LINE SMOOTH",
"200 -77 OFFCURVE",
"226 -102 OFFCURVE",
"257 -102 CURVE SMOOTH",
"508 -102 LINE SMOOTH"
);
}
);
vertWidth = 1000;
width = 564;
}
);
note = uni3016;
unicode = 3016;
},
{
glyphname = whitelenticularbracketright;
lastChange = "2017-12-21 08:45:25 +0000";
layers = (
{
layerId = "7377DBF7-6916-486D-9290-81CE20E97294";
paths = (
{
closed = 1;
nodes = (
"199 84 OFFCURVE",
"239 216 OFFCURVE",
"239 360 CURVE SMOOTH",
"239 504 OFFCURVE",
"199 636 OFFCURVE",
"120 756 CURVE",
"117 760 OFFCURVE",
"119 762 OFFCURVE",
"124 762 CURVE SMOOTH",
"296 762 LINE SMOOTH",
"301 762 OFFCURVE",
"304 759 OFFCURVE",
"304 754 CURVE SMOOTH",
"304 -34 LINE SMOOTH",
"304 -40 OFFCURVE",
"301 -43 OFFCURVE",
"296 -43 CURVE SMOOTH",
"124 -43 LINE SMOOTH",
"120 -43 OFFCURVE",
"117 -39 OFFCURVE",
"120 -36 CURVE"
);
},
{
closed = 1;
nodes = (
"338 -102 OFFCURVE",
"364 -77 OFFCURVE",
"364 -46 CURVE SMOOTH",
"364 766 LINE SMOOTH",
"364 797 OFFCURVE",
"338 822 OFFCURVE",
"307 822 CURVE SMOOTH",
"56 822 LINE SMOOTH",
"33 822 OFFCURVE",
"23 797 OFFCURVE",
"36 780 CURVE SMOOTH",
"128 664 OFFCURVE",
"179 513 OFFCURVE",
"179 360 CURVE SMOOTH",
"179 207 OFFCURVE",
"128 56 OFFCURVE",
"36 -60 CURVE SMOOTH",
"23 -77 OFFCURVE",
"33 -102 OFFCURVE",
"56 -102 CURVE SMOOTH",
"307 -102 LINE SMOOTH"
);
}
);
vertWidth = 1000;
width = 564;
}
);
note = uni3017;
unicode = 3017;
},
{
glyphname = bracketleft.full;
lastChange = "2017-12-21 08:45:12 +0000";
layers = (
{
layerId = "7377DBF7-6916-486D-9290-81CE20E97294";
paths = (
{
closed = 1;
nodes = (
"551 -102 OFFCURVE",
"570 -83 OFFCURVE",
"570 -62 CURVE SMOOTH",
"570 -41 OFFCURVE",
"551 -22 OFFCURVE",
"530 -22 CURVE SMOOTH",
"309 -22 LINE SMOOTH",
"303 -22 OFFCURVE",
"300 -19 OFFCURVE",
"300 -14 CURVE SMOOTH",
"300 734 LINE SMOOTH",
"300 740 OFFCURVE",
"303 743 OFFCURVE",
"309 743 CURVE SMOOTH",
"530 743 LINE SMOOTH",
"551 743 OFFCURVE",
"570 760 OFFCURVE",
"570 783 CURVE SMOOTH",
"570 806 OFFCURVE",
"551 823 OFFCURVE",
"530 823 CURVE SMOOTH",
"257 823 LINE SMOOTH",
"226 823 OFFCURVE",
"200 797 OFFCURVE",
"200 766 CURVE SMOOTH",
"200 -46 LINE SMOOTH",
"200 -77 OFFCURVE",
"226 -102 OFFCURVE",
"257 -102 CURVE SMOOTH",
"530 -102 LINE SMOOTH"
);
}
);
vertWidth = 1000;
width = 600;
}
);
note = uniFF3B;
unicode = FF3B;
},
{
glyphname = bracketright.full;
lastChange = "2017-12-21 08:45:25 +0000";
layers = (
{
layerId = "7377DBF7-6916-486D-9290-81CE20E97294";
paths = (
{
closed = 1;
nodes = (
"49 -22 OFFCURVE",
"30 -41 OFFCURVE",
"30 -62 CURVE SMOOTH",
"30 -83 OFFCURVE",
"49 -102 OFFCURVE",
"70 -102 CURVE SMOOTH",
"343 -102 LINE SMOOTH",
"374 -102 OFFCURVE",
"400 -77 OFFCURVE",
"400 -46 CURVE SMOOTH",
"400 766 LINE SMOOTH",
"400 797 OFFCURVE",
"374 822 OFFCURVE",
"343 822 CURVE SMOOTH",
"70 822 LINE SMOOTH",
"49 822 OFFCURVE",
"30 803 OFFCURVE",
"30 782 CURVE SMOOTH",
"30 761 OFFCURVE",
"49 742 OFFCURVE",
"70 742 CURVE SMOOTH",
"291 742 LINE SMOOTH",
"297 742 OFFCURVE",
"300 739 OFFCURVE",
"300 734 CURVE SMOOTH",
"300 -14 LINE SMOOTH",
"300 -19 OFFCURVE",
"297 -22 OFFCURVE",
"291 -22 CURVE SMOOTH",
"70 -22 LINE SMOOTH"
);
}
);
vertWidth = 1000;
width = 600;
}
);
note = uniFF3D;
unicode = FF3D;
},
{
glyphname = parenleft.full;
lastChange = "2017-12-21 08:45:12 +0000";
layers = (
{
layerId = "7377DBF7-6916-486D-9290-81CE20E97294";
paths = (
{
closed = 1;
nodes = (
"486 -102 OFFCURVE",
"495 -80 OFFCURVE",
"483 -68 CURVE SMOOTH",
"364 52 OFFCURVE",
"305 195 OFFCURVE",
"305 360 CURVE SMOOTH",
"305 525 OFFCURVE",
"364 668 OFFCURVE",
"483 788 CURVE SMOOTH",
"496 801 OFFCURVE",
"487 822 OFFCURVE",
"470 822 CURVE SMOOTH",
"434 822 OFFCURVE",
"405 811 OFFCURVE",
"382 788 CURVE SMOOTH",
"265 673 OFFCURVE",
"200 523 OFFCURVE",
"200 360 CURVE SMOOTH",
"200 197 OFFCURVE",
"265 47 OFFCURVE",
"382 -68 CURVE SMOOTH",
"405 -91 OFFCURVE",
"434 -102 OFFCURVE",
"470 -102 CURVE SMOOTH"
);
}
);
vertWidth = 1000;
width = 519;
}
);
note = uniFF08;
unicode = FF08;
},
{
glyphname = parenright.full;
lastChange = "2017-12-21 08:45:25 +0000";
layers = (
{
layerId = "7377DBF7-6916-486D-9290-81CE20E97294";
paths = (
{
closed = 1;
nodes = (
"85 -102 OFFCURVE",
"114 -91 OFFCURVE",
"137 -68 CURVE SMOOTH",
"254 47 OFFCURVE",
"319 197 OFFCURVE",
"319 360 CURVE SMOOTH",
"319 523 OFFCURVE",
"254 673 OFFCURVE",
"137 788 CURVE SMOOTH",
"114 811 OFFCURVE",
"85 822 OFFCURVE",
"49 822 CURVE SMOOTH",
"33 822 OFFCURVE",
"24 800 OFFCURVE",
"36 788 CURVE SMOOTH",
"155 668 OFFCURVE",
"214 525 OFFCURVE",
"214 360 CURVE SMOOTH",
"214 195 OFFCURVE",
"155 52 OFFCURVE",
"36 -68 CURVE SMOOTH",
"23 -81 OFFCURVE",
"32 -102 OFFCURVE",
"49 -102 CURVE SMOOTH"
);
}
);
vertWidth = 1000;
width = 519;
}
);
note = uniFF09;
unicode = FF09;
},
{
glyphname = "dot-kata";
lastChange = "2017-12-21 08:44:52 +0000";
layers = (
{
layerId = "7377DBF7-6916-486D-9290-81CE20E97294";
paths = (
{
closed = 1;
nodes = (
"274 285 OFFCURVE",
"300 311 OFFCURVE",
"300 342 CURVE SMOOTH",
"300 378 LINE SMOOTH",
"300 409 OFFCURVE",
"274 435 OFFCURVE",
"243 435 CURVE SMOOTH",
"207 435 LINE SMOOTH",
"176 435 OFFCURVE",
"150 409 OFFCURVE",
"150 378 CURVE SMOOTH",
"150 342 LINE SMOOTH",
"150 311 OFFCURVE",
"176 285 OFFCURVE",
"207 285 CURVE SMOOTH",
"243 285 LINE SMOOTH"
);
}
);
vertWidth = 1000;
width = 450;
}
);
note = uni30FB;
unicode = 30FB;
},
{
glyphname = "comma-han";
lastChange = "2017-12-21 08:45:36 +0000";
layers = (
{
layerId = "7377DBF7-6916-486D-9290-81CE20E97294";
paths = (
{
closed = 1;
nodes = (
"200 -53 OFFCURVE",
"236 -58 OFFCURVE",
"261 -38 CURVE SMOOTH",
"285 -19 OFFCURVE",
"290 16 OFFCURVE",
"270 40 CURVE SMOOTH",
"234 83 OFFCURVE",
"194 128 OFFCURVE",
"149 176 CURVE SMOOTH",
"128 199 OFFCURVE",
"93 201 OFFCURVE",
"69 180 CURVE SMOOTH",
"46 159 OFFCURVE",
"44 123 OFFCURVE",
"65 100 CURVE SMOOTH",
"110 49 OFFCURVE",
"148 6 OFFCURVE",
"179 -29 CURVE SMOOTH"
);
}
);
vertWidth = 1000;
width = 482;
}
);
note = uni3001;
unicode = 3001;
},
{
glyphname = "period-han";
lastChange = "2017-12-21 08:45:43 +0000";
layers = (
{
layerId = "7377DBF7-6916-486D-9290-81CE20E97294";
paths = (
{
closed = 1;
nodes = (
"282 113 OFFCURVE",
"290 94 OFFCURVE",
"290 72 CURVE SMOOTH",
"290 28 OFFCURVE",
"254 -8 OFFCURVE",
"210 -8 CURVE SMOOTH",
"166 -8 OFFCURVE",
"130 28 OFFCURVE",
"130 72 CURVE SMOOTH",
"130 116 OFFCURVE",
"166 152 OFFCURVE",
"210 152 CURVE SMOOTH",
"232 152 OFFCURVE",
"251 144 OFFCURVE",
"267 129 CURVE"
);
},
{
closed = 1;
nodes = (
"354 -10 OFFCURVE",
"370 28 OFFCURVE",
"370 72 CURVE SMOOTH",
"370 160 OFFCURVE",
"298 232 OFFCURVE",
"210 232 CURVE SMOOTH",
"122 232 OFFCURVE",
"50 160 OFFCURVE",
"50 72 CURVE SMOOTH",
"50 -16 OFFCURVE",
"122 -88 OFFCURVE",
"210 -88 CURVE SMOOTH",
"254 -88 OFFCURVE",
"292 -72 OFFCURVE",
"323 -41 CURVE SMOOTH"
);
}
